<?xml version="1.0" encoding="utf-8" standalone="no"?>
<!DOCTYPE svg PUBLIC "-//W3C//DTD SVG 1.1//EN"
  "http://www.w3.org/Graphics/SVG/1.1/DTD/svg11.dtd">
<!-- Created with matplotlib (https://matplotlib.org/) -->
<svg height="518.4pt" version="1.1" viewBox="0 0 172.8 518.4" width="172.8pt" xmlns="http://www.w3.org/2000/svg" xmlns:xlink="http://www.w3.org/1999/xlink">
 <defs>
  <style type="text/css">
*{stroke-linecap:butt;stroke-linejoin:round;}
  </style>
 </defs>
 <g id="figure_1">
  <g id="patch_1">
   <path d="M 0 518.4 
L 172.8 518.4 
L 172.8 0 
L 0 0 
z
" style="fill:#ffffff;"/>
  </g>
  <g id="axes_1">
   <g id="patch_2">
    <path d="M 54.245 94.336 
L 153.337395 94.336 
L 153.337395 26.16 
L 54.245 26.16 
z
" style="fill:#ffffff;"/>
   </g>
   <g id="matplotlib.axis_1">
    <g id="xtick_1">
     <g id="line2d_1">
      <defs>
       <path d="M 0 0 
L 0 3.5 
" id="me70ac0e97a" style="stroke:#000000;stroke-width:0.8;"/>
      </defs>
      <g>
       <use style="stroke:#000000;stroke-width:0.8;" x="58.614333" xlink:href="#me70ac0e97a" y="94.336"/>
      </g>
     </g>
     <g id="text_1">
      <!-- $\mathdefault{10^{-1}}$ -->
      <defs>
       <path d="M 12.40625 8.296875 
L 28.515625 8.296875 
L 28.515625 63.921875 
L 10.984375 60.40625 
L 10.984375 69.390625 
L 28.421875 72.90625 
L 38.28125 72.90625 
L 38.28125 8.296875 
L 54.390625 8.296875 
L 54.390625 0 
L 12.40625 0 
z
" id="DejaVuSans-49"/>
       <path d="M 31.78125 66.40625 
Q 24.171875 66.40625 20.328125 58.90625 
Q 16.5 51.421875 16.5 36.375 
Q 16.5 21.390625 20.328125 13.890625 
Q 24.171875 6.390625 31.78125 6.390625 
Q 39.453125 6.390625 43.28125 13.890625 
Q 47.125 21.390625 47.125 36.375 
Q 47.125 51.421875 43.28125 58.90625 
Q 39.453125 66.40625 31.78125 66.40625 
z
M 31.78125 74.21875 
Q 44.046875 74.21875 50.515625 64.515625 
Q 56.984375 54.828125 56.984375 36.375 
Q 56.984375 17.96875 50.515625 8.265625 
Q 44.046875 -1.421875 31.78125 -1.421875 
Q 19.53125 -1.421875 13.0625 8.265625 
Q 6.59375 17.96875 6.59375 36.375 
Q 6.59375 54.828125 13.0625 64.515625 
Q 19.53125 74.21875 31.78125 74.21875 
z
" id="DejaVuSans-48"/>
       <path d="M 10.59375 35.5 
L 73.1875 35.5 
L 73.1875 27.203125 
L 10.59375 27.203125 
z
" id="DejaVuSans-8722"/>
      </defs>
      <g transform="translate(46.864333 108.934438)scale(0.1 -0.1)">
       <use transform="translate(0 0.684375)" xlink:href="#DejaVuSans-49"/>
       <use transform="translate(63.623047 0.684375)" xlink:href="#DejaVuSans-48"/>
       <use transform="translate(128.203125 38.965625)scale(0.7)" xlink:href="#DejaVuSans-8722"/>
       <use transform="translate(186.855469 38.965625)scale(0.7)" xlink:href="#DejaVuSans-49"/>
      </g>
     </g>
    </g>
    <g id="xtick_2">
     <g id="line2d_2">
      <g>
       <use style="stroke:#000000;stroke-width:0.8;" x="105.975864" xlink:href="#me70ac0e97a" y="94.336"/>
      </g>
     </g>
     <g id="text_2">
      <!-- $\mathdefault{10^{0}}$ -->
      <g transform="translate(97.175864 108.934438)scale(0.1 -0.1)">
       <use transform="translate(0 0.765625)" xlink:href="#DejaVuSans-49"/>
       <use transform="translate(63.623047 0.765625)" xlink:href="#DejaVuSans-48"/>
       <use transform="translate(128.203125 39.046875)scale(0.7)" xlink:href="#DejaVuSans-48"/>
      </g>
     </g>
    </g>
    <g id="xtick_3">
     <g id="line2d_3">
      <g>
       <use style="stroke:#000000;stroke-width:0.8;" x="153.337395" xlink:href="#me70ac0e97a" y="94.336"/>
      </g>
     </g>
     <g id="text_3">
      <!-- $\mathdefault{10^{1}}$ -->
      <g transform="translate(144.537395 108.934438)scale(0.1 -0.1)">
       <use transform="translate(0 0.684375)" xlink:href="#DejaVuSans-49"/>
       <use transform="translate(63.623047 0.684375)" xlink:href="#DejaVuSans-48"/>
       <use transform="translate(128.203125 38.965625)scale(0.7)" xlink:href="#DejaVuSans-49"/>
      </g>
     </g>
    </g>
    <g id="text_4">
     <!-- $\Delta t$ [ms] -->
     <defs>
      <path d="M 34.1875 63.1875 
L 14.15625 8.203125 
L 54.25 8.203125 
z
M 0.78125 0 
L 28.609375 72.90625 
L 39.796875 72.90625 
L 67.578125 0 
z
" id="DejaVuSans-916"/>
      <path d="M 42.28125 54.6875 
L 40.921875 47.703125 
L 23 47.703125 
L 17.1875 18.015625 
Q 16.890625 16.359375 16.75 15.234375 
Q 16.609375 14.109375 16.609375 13.484375 
Q 16.609375 10.359375 18.484375 8.9375 
Q 20.359375 7.515625 24.515625 7.515625 
L 33.59375 7.515625 
L 32.078125 0 
L 23.484375 0 
Q 15.484375 0 11.546875 3.125 
Q 7.625 6.25 7.625 12.59375 
Q 7.625 13.71875 7.765625 15.0625 
Q 7.90625 16.40625 8.203125 18.015625 
L 14.015625 47.703125 
L 6.390625 47.703125 
L 7.8125 54.6875 
L 15.28125 54.6875 
L 18.3125 70.21875 
L 27.296875 70.21875 
L 24.3125 54.6875 
z
" id="DejaVuSans-Oblique-116"/>
      <path id="DejaVuSans-32"/>
      <path d="M 8.59375 75.984375 
L 29.296875 75.984375 
L 29.296875 69 
L 17.578125 69 
L 17.578125 -6.203125 
L 29.296875 -6.203125 
L 29.296875 -13.1875 
L 8.59375 -13.1875 
z
" id="DejaVuSans-91"/>
      <path d="M 52 44.1875 
Q 55.375 50.25 60.0625 53.125 
Q 64.75 56 71.09375 56 
Q 79.640625 56 84.28125 50.015625 
Q 88.921875 44.046875 88.921875 33.015625 
L 88.921875 0 
L 79.890625 0 
L 79.890625 32.71875 
Q 79.890625 40.578125 77.09375 44.375 
Q 74.3125 48.1875 68.609375 48.1875 
Q 61.625 48.1875 57.5625 43.546875 
Q 53.515625 38.921875 53.515625 30.90625 
L 53.515625 0 
L 44.484375 0 
L 44.484375 32.71875 
Q 44.484375 40.625 41.703125 44.40625 
Q 38.921875 48.1875 33.109375 48.1875 
Q 26.21875 48.1875 22.15625 43.53125 
Q 18.109375 38.875 18.109375 30.90625 
L 18.109375 0 
L 9.078125 0 
L 9.078125 54.6875 
L 18.109375 54.6875 
L 18.109375 46.1875 
Q 21.1875 51.21875 25.484375 53.609375 
Q 29.78125 56 35.6875 56 
Q 41.65625 56 45.828125 52.96875 
Q 50 49.953125 52 44.1875 
z
" id="DejaVuSans-109"/>
      <path d="M 44.28125 53.078125 
L 44.28125 44.578125 
Q 40.484375 46.53125 36.375 47.5 
Q 32.28125 48.484375 27.875 48.484375 
Q 21.1875 48.484375 17.84375 46.4375 
Q 14.5 44.390625 14.5 40.28125 
Q 14.5 37.15625 16.890625 35.375 
Q 19.28125 33.59375 26.515625 31.984375 
L 29.59375 31.296875 
Q 39.15625 29.25 43.1875 25.515625 
Q 47.21875 21.78125 47.21875 15.09375 
Q 47.21875 7.46875 41.1875 3.015625 
Q 35.15625 -1.421875 24.609375 -1.421875 
Q 20.21875 -1.421875 15.453125 -0.5625 
Q 10.6875 0.296875 5.421875 2 
L 5.421875 11.28125 
Q 10.40625 8.6875 15.234375 7.390625 
Q 20.0625 6.109375 24.8125 6.109375 
Q 31.15625 6.109375 34.5625 8.28125 
Q 37.984375 10.453125 37.984375 14.40625 
Q 37.984375 18.0625 35.515625 20.015625 
Q 33.0625 21.96875 24.703125 23.78125 
L 21.578125 24.515625 
Q 13.234375 26.265625 9.515625 29.90625 
Q 5.8125 33.546875 5.8125 39.890625 
Q 5.8125 47.609375 11.28125 51.796875 
Q 16.75 56 26.8125 56 
Q 31.78125 56 36.171875 55.265625 
Q 40.578125 54.546875 44.28125 53.078125 
z
" id="DejaVuSans-115"/>
      <path d="M 30.421875 75.984375 
L 30.421875 -13.1875 
L 9.71875 -13.1875 
L 9.71875 -6.203125 
L 21.390625 -6.203125 
L 21.390625 69 
L 9.71875 69 
L 9.71875 75.984375 
z
" id="DejaVuSans-93"/>
     </defs>
     <g transform="translate(85.441198 122.612563)scale(0.1 -0.1)">
      <use transform="translate(0 0.015625)" xlink:href="#DejaVuSans-916"/>
      <use transform="translate(68.408203 0.015625)" xlink:href="#DejaVuSans-Oblique-116"/>
      <use transform="translate(107.617188 0.015625)" xlink:href="#DejaVuSans-32"/>
      <use transform="translate(139.404297 0.015625)" xlink:href="#DejaVuSans-91"/>
      <use transform="translate(178.417969 0.015625)" xlink:href="#DejaVuSans-109"/>
      <use transform="translate(275.830078 0.015625)" xlink:href="#DejaVuSans-115"/>
      <use transform="translate(327.929688 0.015625)" xlink:href="#DejaVuSans-93"/>
     </g>
    </g>
   </g>
   <g id="matplotlib.axis_2">
    <g id="ytick_1">
     <g id="line2d_4">
      <defs>
       <path d="M 0 0 
L -3.5 0 
" id="m1098dd0cb2" style="stroke:#000000;stroke-width:0.8;"/>
      </defs>
      <g>
       <use style="stroke:#000000;stroke-width:0.8;" x="54.245" xlink:href="#m1098dd0cb2" y="67.062758"/>
      </g>
     </g>
     <g id="text_5">
      <!-- 0.04 -->
      <defs>
       <path d="M 10.6875 12.40625 
L 21 12.40625 
L 21 0 
L 10.6875 0 
z
" id="DejaVuSans-46"/>
       <path d="M 37.796875 64.3125 
L 12.890625 25.390625 
L 37.796875 25.390625 
z
M 35.203125 72.90625 
L 47.609375 72.90625 
L 47.609375 25.390625 
L 58.015625 25.390625 
L 58.015625 17.1875 
L 47.609375 17.1875 
L 47.609375 0 
L 37.796875 0 
L 37.796875 17.1875 
L 4.890625 17.1875 
L 4.890625 26.703125 
z
" id="DejaVuSans-52"/>
      </defs>
      <g transform="translate(24.979375 70.861977)scale(0.1 -0.1)">
       <use xlink:href="#DejaVuSans-48"/>
       <use x="63.623047" xlink:href="#DejaVuSans-46"/>
       <use x="95.410156" xlink:href="#DejaVuSans-48"/>
       <use x="159.033203" xlink:href="#DejaVuSans-52"/>
      </g>
     </g>
    </g>
    <g id="ytick_2">
     <g id="line2d_5">
      <g>
       <use style="stroke:#000000;stroke-width:0.8;" x="54.245" xlink:href="#m1098dd0cb2" y="35.801381"/>
      </g>
     </g>
     <g id="text_6">
      <!-- 0.06 -->
      <defs>
       <path d="M 33.015625 40.375 
Q 26.375 40.375 22.484375 35.828125 
Q 18.609375 31.296875 18.609375 23.390625 
Q 18.609375 15.53125 22.484375 10.953125 
Q 26.375 6.390625 33.015625 6.390625 
Q 39.65625 6.390625 43.53125 10.953125 
Q 47.40625 15.53125 47.40625 23.390625 
Q 47.40625 31.296875 43.53125 35.828125 
Q 39.65625 40.375 33.015625 40.375 
z
M 52.59375 71.296875 
L 52.59375 62.3125 
Q 48.875 64.0625 45.09375 64.984375 
Q 41.3125 65.921875 37.59375 65.921875 
Q 27.828125 65.921875 22.671875 59.328125 
Q 17.53125 52.734375 16.796875 39.40625 
Q 19.671875 43.65625 24.015625 45.921875 
Q 28.375 48.1875 33.59375 48.1875 
Q 44.578125 48.1875 50.953125 41.515625 
Q 57.328125 34.859375 57.328125 23.390625 
Q 57.328125 12.15625 50.6875 5.359375 
Q 44.046875 -1.421875 33.015625 -1.421875 
Q 20.359375 -1.421875 13.671875 8.265625 
Q 6.984375 17.96875 6.984375 36.375 
Q 6.984375 53.65625 15.1875 63.9375 
Q 23.390625 74.21875 37.203125 74.21875 
Q 40.921875 74.21875 44.703125 73.484375 
Q 48.484375 72.75 52.59375 71.296875 
z
" id="DejaVuSans-54"/>
      </defs>
      <g transform="translate(24.979375 39.6006)scale(0.1 -0.1)">
       <use xlink:href="#DejaVuSans-48"/>
       <use x="63.623047" xlink:href="#DejaVuSans-46"/>
       <use x="95.410156" xlink:href="#DejaVuSans-48"/>
       <use x="159.033203" xlink:href="#DejaVuSans-54"/>
      </g>
     </g>
    </g>
    <g id="text_7">
     <!-- decoder loss -->
     <defs>
      <path d="M 45.40625 46.390625 
L 45.40625 75.984375 
L 54.390625 75.984375 
L 54.390625 0 
L 45.40625 0 
L 45.40625 8.203125 
Q 42.578125 3.328125 38.25 0.953125 
Q 33.9375 -1.421875 27.875 -1.421875 
Q 17.96875 -1.421875 11.734375 6.484375 
Q 5.515625 14.40625 5.515625 27.296875 
Q 5.515625 40.1875 11.734375 48.09375 
Q 17.96875 56 27.875 56 
Q 33.9375 56 38.25 53.625 
Q 42.578125 51.265625 45.40625 46.390625 
z
M 14.796875 27.296875 
Q 14.796875 17.390625 18.875 11.75 
Q 22.953125 6.109375 30.078125 6.109375 
Q 37.203125 6.109375 41.296875 11.75 
Q 45.40625 17.390625 45.40625 27.296875 
Q 45.40625 37.203125 41.296875 42.84375 
Q 37.203125 48.484375 30.078125 48.484375 
Q 22.953125 48.484375 18.875 42.84375 
Q 14.796875 37.203125 14.796875 27.296875 
z
" id="DejaVuSans-100"/>
      <path d="M 56.203125 29.59375 
L 56.203125 25.203125 
L 14.890625 25.203125 
Q 15.484375 15.921875 20.484375 11.0625 
Q 25.484375 6.203125 34.421875 6.203125 
Q 39.59375 6.203125 44.453125 7.46875 
Q 49.3125 8.734375 54.109375 11.28125 
L 54.109375 2.78125 
Q 49.265625 0.734375 44.1875 -0.34375 
Q 39.109375 -1.421875 33.890625 -1.421875 
Q 20.796875 -1.421875 13.15625 6.1875 
Q 5.515625 13.8125 5.515625 26.8125 
Q 5.515625 40.234375 12.765625 48.109375 
Q 20.015625 56 32.328125 56 
Q 43.359375 56 49.78125 48.890625 
Q 56.203125 41.796875 56.203125 29.59375 
z
M 47.21875 32.234375 
Q 47.125 39.59375 43.09375 43.984375 
Q 39.0625 48.390625 32.421875 48.390625 
Q 24.90625 48.390625 20.390625 44.140625 
Q 15.875 39.890625 15.1875 32.171875 
z
" id="DejaVuSans-101"/>
      <path d="M 48.78125 52.59375 
L 48.78125 44.1875 
Q 44.96875 46.296875 41.140625 47.34375 
Q 37.3125 48.390625 33.40625 48.390625 
Q 24.65625 48.390625 19.8125 42.84375 
Q 14.984375 37.3125 14.984375 27.296875 
Q 14.984375 17.28125 19.8125 11.734375 
Q 24.65625 6.203125 33.40625 6.203125 
Q 37.3125 6.203125 41.140625 7.25 
Q 44.96875 8.296875 48.78125 10.40625 
L 48.78125 2.09375 
Q 45.015625 0.34375 40.984375 -0.53125 
Q 36.96875 -1.421875 32.421875 -1.421875 
Q 20.0625 -1.421875 12.78125 6.34375 
Q 5.515625 14.109375 5.515625 27.296875 
Q 5.515625 40.671875 12.859375 48.328125 
Q 20.21875 56 33.015625 56 
Q 37.15625 56 41.109375 55.140625 
Q 45.0625 54.296875 48.78125 52.59375 
z
" id="DejaVuSans-99"/>
      <path d="M 30.609375 48.390625 
Q 23.390625 48.390625 19.1875 42.75 
Q 14.984375 37.109375 14.984375 27.296875 
Q 14.984375 17.484375 19.15625 11.84375 
Q 23.34375 6.203125 30.609375 6.203125 
Q 37.796875 6.203125 41.984375 11.859375 
Q 46.1875 17.53125 46.1875 27.296875 
Q 46.1875 37.015625 41.984375 42.703125 
Q 37.796875 48.390625 30.609375 48.390625 
z
M 30.609375 56 
Q 42.328125 56 49.015625 48.375 
Q 55.71875 40.765625 55.71875 27.296875 
Q 55.71875 13.875 49.015625 6.21875 
Q 42.328125 -1.421875 30.609375 -1.421875 
Q 18.84375 -1.421875 12.171875 6.21875 
Q 5.515625 13.875 5.515625 27.296875 
Q 5.515625 40.765625 12.171875 48.375 
Q 18.84375 56 30.609375 56 
z
" id="DejaVuSans-111"/>
      <path d="M 41.109375 46.296875 
Q 39.59375 47.171875 37.8125 47.578125 
Q 36.03125 48 33.890625 48 
Q 26.265625 48 22.1875 43.046875 
Q 18.109375 38.09375 18.109375 28.8125 
L 18.109375 0 
L 9.078125 0 
L 9.078125 54.6875 
L 18.109375 54.6875 
L 18.109375 46.1875 
Q 20.953125 51.171875 25.484375 53.578125 
Q 30.03125 56 36.53125 56 
Q 37.453125 56 38.578125 55.875 
Q 39.703125 55.765625 41.0625 55.515625 
z
" id="DejaVuSans-114"/>
      <path d="M 9.421875 75.984375 
L 18.40625 75.984375 
L 18.40625 0 
L 9.421875 0 
z
" id="DejaVuSans-108"/>
     </defs>
     <g transform="translate(18.899687 91.8605)rotate(-90)scale(0.1 -0.1)">
      <use xlink:href="#DejaVuSans-100"/>
      <use x="63.476562" xlink:href="#DejaVuSans-101"/>
      <use x="125" xlink:href="#DejaVuSans-99"/>
      <use x="179.980469" xlink:href="#DejaVuSans-111"/>
      <use x="241.162109" xlink:href="#DejaVuSans-100"/>
      <use x="304.638672" xlink:href="#DejaVuSans-101"/>
      <use x="366.162109" xlink:href="#DejaVuSans-114"/>
      <use x="407.275391" xlink:href="#DejaVuSans-32"/>
      <use x="439.0625" xlink:href="#DejaVuSans-108"/>
      <use x="466.845703" xlink:href="#DejaVuSans-111"/>
      <use x="528.027344" xlink:href="#DejaVuSans-115"/>
      <use x="580.126953" xlink:href="#DejaVuSans-115"/>
     </g>
    </g>
   </g>
   <g id="line2d_6">
    <path clip-path="url(#pfa7e3f2242)" d="M 58.614333 71.545824 
L 63.20414 78.647221 
L 66.954285 84.294839 
L 70.124987 78.212277 
L 72.871575 82.915686 
L 75.294237 80.66096 
L 77.461381 74.564166 
L 79.421802 68.082791 
L 81.211526 78.764195 
L 87.128816 29.356292 
L 91.718623 29.258909 
L 98.63947 29.276 
L 105.975864 29.294615 
L 114.315816 29.700654 
L 120.233106 29.752979 
L 128.573058 30.133397 
L 139.080154 30.5382 
L 146.001001 30.514758 
" style="fill:none;stroke:#ffa500;stroke-linecap:square;stroke-width:1.5;"/>
    <defs>
     <path d="M 0 1.5 
C 0.397805 1.5 0.77937 1.341951 1.06066 1.06066 
C 1.341951 0.77937 1.5 0.397805 1.5 0 
C 1.5 -0.397805 1.341951 -0.77937 1.06066 -1.06066 
C 0.77937 -1.341951 0.397805 -1.5 0 -1.5 
C -0.397805 -1.5 -0.77937 -1.341951 -1.06066 -1.06066 
C -1.341951 -0.77937 -1.5 -0.397805 -1.5 0 
C -1.5 0.397805 -1.341951 0.77937 -1.06066 1.06066 
C -0.77937 1.341951 -0.397805 1.5 0 1.5 
z
" id="m8567c88df1" style="stroke:#ffa500;"/>
    </defs>
    <g clip-path="url(#pfa7e3f2242)">
     <use style="fill:#ffa500;stroke:#ffa500;" x="58.614333" xlink:href="#m8567c88df1" y="71.545824"/>
     <use style="fill:#ffa500;stroke:#ffa500;" x="63.20414" xlink:href="#m8567c88df1" y="78.647221"/>
     <use style="fill:#ffa500;stroke:#ffa500;" x="66.954285" xlink:href="#m8567c88df1" y="84.294839"/>
     <use style="fill:#ffa500;stroke:#ffa500;" x="70.124987" xlink:href="#m8567c88df1" y="78.212277"/>
     <use style="fill:#ffa500;stroke:#ffa500;" x="72.871575" xlink:href="#m8567c88df1" y="82.915686"/>
     <use style="fill:#ffa500;stroke:#ffa500;" x="75.294237" xlink:href="#m8567c88df1" y="80.66096"/>
     <use style="fill:#ffa500;stroke:#ffa500;" x="77.461381" xlink:href="#m8567c88df1" y="74.564166"/>
     <use style="fill:#ffa500;stroke:#ffa500;" x="79.421802" xlink:href="#m8567c88df1" y="68.082791"/>
     <use style="fill:#ffa500;stroke:#ffa500;" x="81.211526" xlink:href="#m8567c88df1" y="78.764195"/>
     <use style="fill:#ffa500;stroke:#ffa500;" x="87.128816" xlink:href="#m8567c88df1" y="29.356292"/>
     <use style="fill:#ffa500;stroke:#ffa500;" x="91.718623" xlink:href="#m8567c88df1" y="29.258909"/>
     <use style="fill:#ffa500;stroke:#ffa500;" x="98.63947" xlink:href="#m8567c88df1" y="29.276"/>
     <use style="fill:#ffa500;stroke:#ffa500;" x="105.975864" xlink:href="#m8567c88df1" y="29.294615"/>
     <use style="fill:#ffa500;stroke:#ffa500;" x="114.315816" xlink:href="#m8567c88df1" y="29.700654"/>
     <use style="fill:#ffa500;stroke:#ffa500;" x="120.233106" xlink:href="#m8567c88df1" y="29.752979"/>
     <use style="fill:#ffa500;stroke:#ffa500;" x="128.573058" xlink:href="#m8567c88df1" y="30.133397"/>
     <use style="fill:#ffa500;stroke:#ffa500;" x="139.080154" xlink:href="#m8567c88df1" y="30.5382"/>
     <use style="fill:#ffa500;stroke:#ffa500;" x="146.001001" xlink:href="#m8567c88df1" y="30.514758"/>
    </g>
   </g>
   <g id="line2d_7">
    <path clip-path="url(#pfa7e3f2242)" d="M 58.614333 86.863027 
L 63.20414 77.668349 
L 66.954285 88.941398 
L 70.124987 91.202348 
L 72.871575 91.237091 
L 75.294237 90.49256 
L 77.461381 90.974428 
L 79.421802 90.8865 
L 81.211526 90.247931 
L 87.128816 90.2027 
L 91.718623 90.156621 
L 98.63947 89.247933 
L 105.975864 87.880034 
L 114.315816 86.322149 
L 120.233106 84.923769 
L 128.573058 81.63208 
L 139.080154 77.00264 
L 146.001001 73.460138 
" style="fill:none;stroke:#556b2f;stroke-linecap:square;stroke-width:1.5;"/>
    <defs>
     <path d="M 0 1.5 
C 0.397805 1.5 0.77937 1.341951 1.06066 1.06066 
C 1.341951 0.77937 1.5 0.397805 1.5 0 
C 1.5 -0.397805 1.341951 -0.77937 1.06066 -1.06066 
C 0.77937 -1.341951 0.397805 -1.5 0 -1.5 
C -0.397805 -1.5 -0.77937 -1.341951 -1.06066 -1.06066 
C -1.341951 -0.77937 -1.5 -0.397805 -1.5 0 
C -1.5 0.397805 -1.341951 0.77937 -1.06066 1.06066 
C -0.77937 1.341951 -0.397805 1.5 0 1.5 
z
" id="m39262491ed" style="stroke:#556b2f;"/>
    </defs>
    <g clip-path="url(#pfa7e3f2242)">
     <use style="fill:#556b2f;stroke:#556b2f;" x="58.614333" xlink:href="#m39262491ed" y="86.863027"/>
     <use style="fill:#556b2f;stroke:#556b2f;" x="63.20414" xlink:href="#m39262491ed" y="77.668349"/>
     <use style="fill:#556b2f;stroke:#556b2f;" x="66.954285" xlink:href="#m39262491ed" y="88.941398"/>
     <use style="fill:#556b2f;stroke:#556b2f;" x="70.124987" xlink:href="#m39262491ed" y="91.202348"/>
     <use style="fill:#556b2f;stroke:#556b2f;" x="72.871575" xlink:href="#m39262491ed" y="91.237091"/>
     <use style="fill:#556b2f;stroke:#556b2f;" x="75.294237" xlink:href="#m39262491ed" y="90.49256"/>
     <use style="fill:#556b2f;stroke:#556b2f;" x="77.461381" xlink:href="#m39262491ed" y="90.974428"/>
     <use style="fill:#556b2f;stroke:#556b2f;" x="79.421802" xlink:href="#m39262491ed" y="90.8865"/>
     <use style="fill:#556b2f;stroke:#556b2f;" x="81.211526" xlink:href="#m39262491ed" y="90.247931"/>
     <use style="fill:#556b2f;stroke:#556b2f;" x="87.128816" xlink:href="#m39262491ed" y="90.2027"/>
     <use style="fill:#556b2f;stroke:#556b2f;" x="91.718623" xlink:href="#m39262491ed" y="90.156621"/>
     <use style="fill:#556b2f;stroke:#556b2f;" x="98.63947" xlink:href="#m39262491ed" y="89.247933"/>
     <use style="fill:#556b2f;stroke:#556b2f;" x="105.975864" xlink:href="#m39262491ed" y="87.880034"/>
     <use style="fill:#556b2f;stroke:#556b2f;" x="114.315816" xlink:href="#m39262491ed" y="86.322149"/>
     <use style="fill:#556b2f;stroke:#556b2f;" x="120.233106" xlink:href="#m39262491ed" y="84.923769"/>
     <use style="fill:#556b2f;stroke:#556b2f;" x="128.573058" xlink:href="#m39262491ed" y="81.63208"/>
     <use style="fill:#556b2f;stroke:#556b2f;" x="139.080154" xlink:href="#m39262491ed" y="77.00264"/>
     <use style="fill:#556b2f;stroke:#556b2f;" x="146.001001" xlink:href="#m39262491ed" y="73.460138"/>
    </g>
   </g>
   <g id="patch_3">
    <path d="M 54.245 94.336 
L 54.245 26.16 
" style="fill:none;stroke:#000000;stroke-linecap:square;stroke-linejoin:miter;stroke-width:0.8;"/>
   </g>
   <g id="patch_4">
    <path d="M 153.337395 94.336 
L 153.337395 26.16 
" style="fill:none;stroke:#000000;stroke-linecap:square;stroke-linejoin:miter;stroke-width:0.8;"/>
   </g>
   <g id="patch_5">
    <path d="M 54.245 94.336 
L 153.337395 94.336 
" style="fill:none;stroke:#000000;stroke-linecap:square;stroke-linejoin:miter;stroke-width:0.8;"/>
   </g>
   <g id="patch_6">
    <path d="M 54.245 26.16 
L 153.337395 26.16 
" style="fill:none;stroke:#000000;stroke-linecap:square;stroke-linejoin:miter;stroke-width:0.8;"/>
   </g>
   <g id="text_8">
    <!-- $\Delta u=0.13$ -->
    <defs>
     <path d="M 6.6875 21.6875 
L 13.09375 54.6875 
L 22.125 54.6875 
L 15.71875 22.015625 
Q 15.234375 19.625 15.015625 17.921875 
Q 14.796875 16.21875 14.796875 15.09375 
Q 14.796875 10.9375 17.328125 8.65625 
Q 19.875 6.390625 24.515625 6.390625 
Q 31.734375 6.390625 37 11.265625 
Q 42.28125 16.15625 43.890625 24.421875 
L 49.90625 54.6875 
L 58.890625 54.6875 
L 48.296875 0 
L 39.3125 0 
L 41.109375 8.59375 
Q 37.3125 3.8125 32.0625 1.1875 
Q 26.8125 -1.421875 20.90625 -1.421875 
Q 13.71875 -1.421875 9.71875 2.515625 
Q 5.71875 6.453125 5.71875 13.484375 
Q 5.71875 14.9375 5.953125 17.140625 
Q 6.203125 19.34375 6.6875 21.6875 
z
" id="DejaVuSans-Oblique-117"/>
     <path d="M 10.59375 45.40625 
L 73.1875 45.40625 
L 73.1875 37.203125 
L 10.59375 37.203125 
z
M 10.59375 25.484375 
L 73.1875 25.484375 
L 73.1875 17.1875 
L 10.59375 17.1875 
z
" id="DejaVuSans-61"/>
     <path d="M 40.578125 39.3125 
Q 47.65625 37.796875 51.625 33 
Q 55.609375 28.21875 55.609375 21.1875 
Q 55.609375 10.40625 48.1875 4.484375 
Q 40.765625 -1.421875 27.09375 -1.421875 
Q 22.515625 -1.421875 17.65625 -0.515625 
Q 12.796875 0.390625 7.625 2.203125 
L 7.625 11.71875 
Q 11.71875 9.328125 16.59375 8.109375 
Q 21.484375 6.890625 26.8125 6.890625 
Q 36.078125 6.890625 40.9375 10.546875 
Q 45.796875 14.203125 45.796875 21.1875 
Q 45.796875 27.640625 41.28125 31.265625 
Q 36.765625 34.90625 28.71875 34.90625 
L 20.21875 34.90625 
L 20.21875 43.015625 
L 29.109375 43.015625 
Q 36.375 43.015625 40.234375 45.921875 
Q 44.09375 48.828125 44.09375 54.296875 
Q 44.09375 59.90625 40.109375 62.90625 
Q 36.140625 65.921875 28.71875 65.921875 
Q 24.65625 65.921875 20.015625 65.03125 
Q 15.375 64.15625 9.8125 62.3125 
L 9.8125 71.09375 
Q 15.4375 72.65625 20.34375 73.4375 
Q 25.25 74.21875 29.59375 74.21875 
Q 40.828125 74.21875 47.359375 69.109375 
Q 53.90625 64.015625 53.90625 55.328125 
Q 53.90625 49.265625 50.4375 45.09375 
Q 46.96875 40.921875 40.578125 39.3125 
z
" id="DejaVuSans-51"/>
    </defs>
    <g transform="translate(75.111198 20.16)scale(0.12 -0.12)">
     <use transform="translate(0 0.78125)" xlink:href="#DejaVuSans-916"/>
     <use transform="translate(68.408203 0.78125)" xlink:href="#DejaVuSans-Oblique-117"/>
     <use transform="translate(151.269531 0.78125)" xlink:href="#DejaVuSans-61"/>
     <use transform="translate(254.541016 0.78125)" xlink:href="#DejaVuSans-48"/>
     <use transform="translate(318.164062 0.78125)" xlink:href="#DejaVuSans-46"/>
     <use transform="translate(349.951172 0.78125)" xlink:href="#DejaVuSans-49"/>
     <use transform="translate(413.574219 0.78125)" xlink:href="#DejaVuSans-51"/>
    </g>
   </g>
   <g id="legend_1">
    <g id="patch_7">
     <path d="M 99.776458 63.51625 
L 146.337395 63.51625 
Q 148.337395 63.51625 148.337395 61.51625 
L 148.337395 33.16 
Q 148.337395 31.16 146.337395 31.16 
L 99.776458 31.16 
Q 97.776458 31.16 97.776458 33.16 
L 97.776458 61.51625 
Q 97.776458 63.51625 99.776458 63.51625 
z
" style="fill:#ffffff;opacity:0.8;stroke:#cccccc;stroke-linejoin:miter;"/>
    </g>
    <g id="line2d_8">
     <path d="M 101.776458 39.258438 
L 121.776458 39.258438 
" style="fill:none;stroke:#ffa500;stroke-linecap:square;stroke-width:1.5;"/>
    </g>
    <g id="line2d_9">
     <g>
      <use style="fill:#ffa500;stroke:#ffa500;" x="111.776458" xlink:href="#m8567c88df1" y="39.258438"/>
     </g>
    </g>
    <g id="text_9">
     <!-- SB -->
     <defs>
      <path d="M 53.515625 70.515625 
L 53.515625 60.890625 
Q 47.90625 63.578125 42.921875 64.890625 
Q 37.9375 66.21875 33.296875 66.21875 
Q 25.25 66.21875 20.875 63.09375 
Q 16.5 59.96875 16.5 54.203125 
Q 16.5 49.359375 19.40625 46.890625 
Q 22.3125 44.4375 30.421875 42.921875 
L 36.375 41.703125 
Q 47.40625 39.59375 52.65625 34.296875 
Q 57.90625 29 57.90625 20.125 
Q 57.90625 9.515625 50.796875 4.046875 
Q 43.703125 -1.421875 29.984375 -1.421875 
Q 24.8125 -1.421875 18.96875 -0.25 
Q 13.140625 0.921875 6.890625 3.21875 
L 6.890625 13.375 
Q 12.890625 10.015625 18.65625 8.296875 
Q 24.421875 6.59375 29.984375 6.59375 
Q 38.421875 6.59375 43.015625 9.90625 
Q 47.609375 13.234375 47.609375 19.390625 
Q 47.609375 24.75 44.3125 27.78125 
Q 41.015625 30.8125 33.5 32.328125 
L 27.484375 33.5 
Q 16.453125 35.6875 11.515625 40.375 
Q 6.59375 45.0625 6.59375 53.421875 
Q 6.59375 63.09375 13.40625 68.65625 
Q 20.21875 74.21875 32.171875 74.21875 
Q 37.3125 74.21875 42.625 73.28125 
Q 47.953125 72.359375 53.515625 70.515625 
z
" id="DejaVuSans-83"/>
      <path d="M 19.671875 34.8125 
L 19.671875 8.109375 
L 35.5 8.109375 
Q 43.453125 8.109375 47.28125 11.40625 
Q 51.125 14.703125 51.125 21.484375 
Q 51.125 28.328125 47.28125 31.5625 
Q 43.453125 34.8125 35.5 34.8125 
z
M 19.671875 64.796875 
L 19.671875 42.828125 
L 34.28125 42.828125 
Q 41.5 42.828125 45.03125 45.53125 
Q 48.578125 48.25 48.578125 53.8125 
Q 48.578125 59.328125 45.03125 62.0625 
Q 41.5 64.796875 34.28125 64.796875 
z
M 9.8125 72.90625 
L 35.015625 72.90625 
Q 46.296875 72.90625 52.390625 68.21875 
Q 58.5 63.53125 58.5 54.890625 
Q 58.5 48.1875 55.375 44.234375 
Q 52.25 40.28125 46.1875 39.3125 
Q 53.46875 37.75 57.5 32.78125 
Q 61.53125 27.828125 61.53125 20.40625 
Q 61.53125 10.640625 54.890625 5.3125 
Q 48.25 0 35.984375 0 
L 9.8125 0 
z
" id="DejaVuSans-66"/>
     </defs>
     <g transform="translate(129.776458 42.758438)scale(0.1 -0.1)">
      <use xlink:href="#DejaVuSans-83"/>
      <use x="63.476562" xlink:href="#DejaVuSans-66"/>
     </g>
    </g>
    <g id="line2d_10">
     <path d="M 101.776458 53.936563 
L 121.776458 53.936563 
" style="fill:none;stroke:#556b2f;stroke-linecap:square;stroke-width:1.5;"/>
    </g>
    <g id="line2d_11">
     <g>
      <use style="fill:#556b2f;stroke:#556b2f;" x="111.776458" xlink:href="#m39262491ed" y="53.936563"/>
     </g>
    </g>
    <g id="text_10">
     <!-- DB -->
     <defs>
      <path d="M 19.671875 64.796875 
L 19.671875 8.109375 
L 31.59375 8.109375 
Q 46.6875 8.109375 53.6875 14.9375 
Q 60.6875 21.78125 60.6875 36.53125 
Q 60.6875 51.171875 53.6875 57.984375 
Q 46.6875 64.796875 31.59375 64.796875 
z
M 9.8125 72.90625 
L 30.078125 72.90625 
Q 51.265625 72.90625 61.171875 64.09375 
Q 71.09375 55.28125 71.09375 36.53125 
Q 71.09375 17.671875 61.125 8.828125 
Q 51.171875 0 30.078125 0 
L 9.8125 0 
z
" id="DejaVuSans-68"/>
     </defs>
     <g transform="translate(129.776458 57.436563)scale(0.1 -0.1)">
      <use xlink:href="#DejaVuSans-68"/>
      <use x="77.001953" xlink:href="#DejaVuSans-66"/>
     </g>
    </g>
   </g>
  </g>
  <g id="axes_2">
   <g id="patch_8">
    <path d="M 54.245 221.236 
L 153.337395 221.236 
L 153.337395 153.06 
L 54.245 153.06 
z
" style="fill:#ffffff;"/>
   </g>
   <g id="matplotlib.axis_3">
    <g id="xtick_4">
     <g id="line2d_12">
      <g>
       <use style="stroke:#000000;stroke-width:0.8;" x="58.614333" xlink:href="#me70ac0e97a" y="221.236"/>
      </g>
     </g>
     <g id="text_11">
      <!-- $\mathdefault{10^{-1}}$ -->
      <g transform="translate(46.864333 235.834438)scale(0.1 -0.1)">
       <use transform="translate(0 0.684375)" xlink:href="#DejaVuSans-49"/>
       <use transform="translate(63.623047 0.684375)" xlink:href="#DejaVuSans-48"/>
       <use transform="translate(128.203125 38.965625)scale(0.7)" xlink:href="#DejaVuSans-8722"/>
       <use transform="translate(186.855469 38.965625)scale(0.7)" xlink:href="#DejaVuSans-49"/>
      </g>
     </g>
    </g>
    <g id="xtick_5">
     <g id="line2d_13">
      <g>
       <use style="stroke:#000000;stroke-width:0.8;" x="105.975864" xlink:href="#me70ac0e97a" y="221.236"/>
      </g>
     </g>
     <g id="text_12">
      <!-- $\mathdefault{10^{0}}$ -->
      <g transform="translate(97.175864 235.834438)scale(0.1 -0.1)">
       <use transform="translate(0 0.765625)" xlink:href="#DejaVuSans-49"/>
       <use transform="translate(63.623047 0.765625)" xlink:href="#DejaVuSans-48"/>
       <use transform="translate(128.203125 39.046875)scale(0.7)" xlink:href="#DejaVuSans-48"/>
      </g>
     </g>
    </g>
    <g id="xtick_6">
     <g id="line2d_14">
      <g>
       <use style="stroke:#000000;stroke-width:0.8;" x="153.337395" xlink:href="#me70ac0e97a" y="221.236"/>
      </g>
     </g>
     <g id="text_13">
      <!-- $\mathdefault{10^{1}}$ -->
      <g transform="translate(144.537395 235.834438)scale(0.1 -0.1)">
       <use transform="translate(0 0.684375)" xlink:href="#DejaVuSans-49"/>
       <use transform="translate(63.623047 0.684375)" xlink:href="#DejaVuSans-48"/>
       <use transform="translate(128.203125 38.965625)scale(0.7)" xlink:href="#DejaVuSans-49"/>
      </g>
     </g>
    </g>
    <g id="text_14">
     <!-- $\Delta t$ [ms] -->
     <g transform="translate(85.441198 249.512563)scale(0.1 -0.1)">
      <use transform="translate(0 0.015625)" xlink:href="#DejaVuSans-916"/>
      <use transform="translate(68.408203 0.015625)" xlink:href="#DejaVuSans-Oblique-116"/>
      <use transform="translate(107.617188 0.015625)" xlink:href="#DejaVuSans-32"/>
      <use transform="translate(139.404297 0.015625)" xlink:href="#DejaVuSans-91"/>
      <use transform="translate(178.417969 0.015625)" xlink:href="#DejaVuSans-109"/>
      <use transform="translate(275.830078 0.015625)" xlink:href="#DejaVuSans-115"/>
      <use transform="translate(327.929688 0.015625)" xlink:href="#DejaVuSans-93"/>
     </g>
    </g>
   </g>
   <g id="matplotlib.axis_4">
    <g id="ytick_3">
     <g id="line2d_15">
      <g>
       <use style="stroke:#000000;stroke-width:0.8;" x="54.245" xlink:href="#m1098dd0cb2" y="194.666655"/>
      </g>
     </g>
     <g id="text_15">
      <!-- 0.04 -->
      <g transform="translate(24.979375 198.465874)scale(0.1 -0.1)">
       <use xlink:href="#DejaVuSans-48"/>
       <use x="63.623047" xlink:href="#DejaVuSans-46"/>
       <use x="95.410156" xlink:href="#DejaVuSans-48"/>
       <use x="159.033203" xlink:href="#DejaVuSans-52"/>
      </g>
     </g>
    </g>
    <g id="ytick_4">
     <g id="line2d_16">
      <g>
       <use style="stroke:#000000;stroke-width:0.8;" x="54.245" xlink:href="#m1098dd0cb2" y="162.852084"/>
      </g>
     </g>
     <g id="text_16">
      <!-- 0.06 -->
      <g transform="translate(24.979375 166.651303)scale(0.1 -0.1)">
       <use xlink:href="#DejaVuSans-48"/>
       <use x="63.623047" xlink:href="#DejaVuSans-46"/>
       <use x="95.410156" xlink:href="#DejaVuSans-48"/>
       <use x="159.033203" xlink:href="#DejaVuSans-54"/>
      </g>
     </g>
    </g>
    <g id="text_17">
     <!-- decoder loss -->
     <g transform="translate(18.899687 218.7605)rotate(-90)scale(0.1 -0.1)">
      <use xlink:href="#DejaVuSans-100"/>
      <use x="63.476562" xlink:href="#DejaVuSans-101"/>
      <use x="125" xlink:href="#DejaVuSans-99"/>
      <use x="179.980469" xlink:href="#DejaVuSans-111"/>
      <use x="241.162109" xlink:href="#DejaVuSans-100"/>
      <use x="304.638672" xlink:href="#DejaVuSans-101"/>
      <use x="366.162109" xlink:href="#DejaVuSans-114"/>
      <use x="407.275391" xlink:href="#DejaVuSans-32"/>
      <use x="439.0625" xlink:href="#DejaVuSans-108"/>
      <use x="466.845703" xlink:href="#DejaVuSans-111"/>
      <use x="528.027344" xlink:href="#DejaVuSans-115"/>
      <use x="580.126953" xlink:href="#DejaVuSans-115"/>
     </g>
    </g>
   </g>
   <g id="line2d_17">
    <path clip-path="url(#pbe1e31e8d0)" d="M 58.614333 208.056864 
L 63.20414 205.362545 
L 66.954285 213.012545 
L 70.124987 205.942887 
L 72.871575 208.756932 
L 75.294237 206.494157 
L 77.461381 201.613383 
L 79.421802 206.863493 
L 81.211526 208.381906 
L 87.128816 156.213659 
L 91.718623 156.161106 
L 98.63947 156.158909 
L 105.975864 156.262372 
L 114.315816 156.576744 
L 120.233106 156.648944 
L 128.573058 156.818603 
L 139.080154 157.338342 
L 146.001001 157.341036 
" style="fill:none;stroke:#ffa500;stroke-linecap:square;stroke-width:1.5;"/>
    <g clip-path="url(#pbe1e31e8d0)">
     <use style="fill:#ffa500;stroke:#ffa500;" x="58.614333" xlink:href="#m8567c88df1" y="208.056864"/>
     <use style="fill:#ffa500;stroke:#ffa500;" x="63.20414" xlink:href="#m8567c88df1" y="205.362545"/>
     <use style="fill:#ffa500;stroke:#ffa500;" x="66.954285" xlink:href="#m8567c88df1" y="213.012545"/>
     <use style="fill:#ffa500;stroke:#ffa500;" x="70.124987" xlink:href="#m8567c88df1" y="205.942887"/>
     <use style="fill:#ffa500;stroke:#ffa500;" x="72.871575" xlink:href="#m8567c88df1" y="208.756932"/>
     <use style="fill:#ffa500;stroke:#ffa500;" x="75.294237" xlink:href="#m8567c88df1" y="206.494157"/>
     <use style="fill:#ffa500;stroke:#ffa500;" x="77.461381" xlink:href="#m8567c88df1" y="201.613383"/>
     <use style="fill:#ffa500;stroke:#ffa500;" x="79.421802" xlink:href="#m8567c88df1" y="206.863493"/>
     <use style="fill:#ffa500;stroke:#ffa500;" x="81.211526" xlink:href="#m8567c88df1" y="208.381906"/>
     <use style="fill:#ffa500;stroke:#ffa500;" x="87.128816" xlink:href="#m8567c88df1" y="156.213659"/>
     <use style="fill:#ffa500;stroke:#ffa500;" x="91.718623" xlink:href="#m8567c88df1" y="156.161106"/>
     <use style="fill:#ffa500;stroke:#ffa500;" x="98.63947" xlink:href="#m8567c88df1" y="156.158909"/>
     <use style="fill:#ffa500;stroke:#ffa500;" x="105.975864" xlink:href="#m8567c88df1" y="156.262372"/>
     <use style="fill:#ffa500;stroke:#ffa500;" x="114.315816" xlink:href="#m8567c88df1" y="156.576744"/>
     <use style="fill:#ffa500;stroke:#ffa500;" x="120.233106" xlink:href="#m8567c88df1" y="156.648944"/>
     <use style="fill:#ffa500;stroke:#ffa500;" x="128.573058" xlink:href="#m8567c88df1" y="156.818603"/>
     <use style="fill:#ffa500;stroke:#ffa500;" x="139.080154" xlink:href="#m8567c88df1" y="157.338342"/>
     <use style="fill:#ffa500;stroke:#ffa500;" x="146.001001" xlink:href="#m8567c88df1" y="157.341036"/>
    </g>
   </g>
   <g id="line2d_18">
    <path clip-path="url(#pbe1e31e8d0)" d="M 58.614333 216.315765 
L 63.20414 218.137091 
L 66.954285 218.028378 
L 70.124987 218.120656 
L 72.871575 217.831431 
L 75.294237 217.593905 
L 77.461381 218.083656 
L 79.421802 217.378827 
L 81.211526 217.681466 
L 87.128816 217.225511 
L 91.718623 216.609537 
L 98.63947 215.975274 
L 105.975864 214.896627 
L 114.315816 213.441371 
L 120.233106 211.625587 
L 128.573058 208.422444 
L 139.080154 203.923869 
L 146.001001 200.105578 
" style="fill:none;stroke:#556b2f;stroke-linecap:square;stroke-width:1.5;"/>
    <g clip-path="url(#pbe1e31e8d0)">
     <use style="fill:#556b2f;stroke:#556b2f;" x="58.614333" xlink:href="#m39262491ed" y="216.315765"/>
     <use style="fill:#556b2f;stroke:#556b2f;" x="63.20414" xlink:href="#m39262491ed" y="218.137091"/>
     <use style="fill:#556b2f;stroke:#556b2f;" x="66.954285" xlink:href="#m39262491ed" y="218.028378"/>
     <use style="fill:#556b2f;stroke:#556b2f;" x="70.124987" xlink:href="#m39262491ed" y="218.120656"/>
     <use style="fill:#556b2f;stroke:#556b2f;" x="72.871575" xlink:href="#m39262491ed" y="217.831431"/>
     <use style="fill:#556b2f;stroke:#556b2f;" x="75.294237" xlink:href="#m39262491ed" y="217.593905"/>
     <use style="fill:#556b2f;stroke:#556b2f;" x="77.461381" xlink:href="#m39262491ed" y="218.083656"/>
     <use style="fill:#556b2f;stroke:#556b2f;" x="79.421802" xlink:href="#m39262491ed" y="217.378827"/>
     <use style="fill:#556b2f;stroke:#556b2f;" x="81.211526" xlink:href="#m39262491ed" y="217.681466"/>
     <use style="fill:#556b2f;stroke:#556b2f;" x="87.128816" xlink:href="#m39262491ed" y="217.225511"/>
     <use style="fill:#556b2f;stroke:#556b2f;" x="91.718623" xlink:href="#m39262491ed" y="216.609537"/>
     <use style="fill:#556b2f;stroke:#556b2f;" x="98.63947" xlink:href="#m39262491ed" y="215.975274"/>
     <use style="fill:#556b2f;stroke:#556b2f;" x="105.975864" xlink:href="#m39262491ed" y="214.896627"/>
     <use style="fill:#556b2f;stroke:#556b2f;" x="114.315816" xlink:href="#m39262491ed" y="213.441371"/>
     <use style="fill:#556b2f;stroke:#556b2f;" x="120.233106" xlink:href="#m39262491ed" y="211.625587"/>
     <use style="fill:#556b2f;stroke:#556b2f;" x="128.573058" xlink:href="#m39262491ed" y="208.422444"/>
     <use style="fill:#556b2f;stroke:#556b2f;" x="139.080154" xlink:href="#m39262491ed" y="203.923869"/>
     <use style="fill:#556b2f;stroke:#556b2f;" x="146.001001" xlink:href="#m39262491ed" y="200.105578"/>
    </g>
   </g>
   <g id="patch_9">
    <path d="M 54.245 221.236 
L 54.245 153.06 
" style="fill:none;stroke:#000000;stroke-linecap:square;stroke-linejoin:miter;stroke-width:0.8;"/>
   </g>
   <g id="patch_10">
    <path d="M 153.337395 221.236 
L 153.337395 153.06 
" style="fill:none;stroke:#000000;stroke-linecap:square;stroke-linejoin:miter;stroke-width:0.8;"/>
   </g>
   <g id="patch_11">
    <path d="M 54.245 221.236 
L 153.337395 221.236 
" style="fill:none;stroke:#000000;stroke-linecap:square;stroke-linejoin:miter;stroke-width:0.8;"/>
   </g>
   <g id="patch_12">
    <path d="M 54.245 153.06 
L 153.337395 153.06 
" style="fill:none;stroke:#000000;stroke-linecap:square;stroke-linejoin:miter;stroke-width:0.8;"/>
   </g>
   <g id="text_18">
    <!-- $\Delta u=0.15$ -->
    <defs>
     <path d="M 10.796875 72.90625 
L 49.515625 72.90625 
L 49.515625 64.59375 
L 19.828125 64.59375 
L 19.828125 46.734375 
Q 21.96875 47.46875 24.109375 47.828125 
Q 26.265625 48.1875 28.421875 48.1875 
Q 40.625 48.1875 47.75 41.5 
Q 54.890625 34.8125 54.890625 23.390625 
Q 54.890625 11.625 47.5625 5.09375 
Q 40.234375 -1.421875 26.90625 -1.421875 
Q 22.3125 -1.421875 17.546875 -0.640625 
Q 12.796875 0.140625 7.71875 1.703125 
L 7.71875 11.625 
Q 12.109375 9.234375 16.796875 8.0625 
Q 21.484375 6.890625 26.703125 6.890625 
Q 35.15625 6.890625 40.078125 11.328125 
Q 45.015625 15.765625 45.015625 23.390625 
Q 45.015625 31 40.078125 35.4375 
Q 35.15625 39.890625 26.703125 39.890625 
Q 22.75 39.890625 18.8125 39.015625 
Q 14.890625 38.140625 10.796875 36.28125 
z
" id="DejaVuSans-53"/>
    </defs>
    <g transform="translate(75.111198 147.06)scale(0.12 -0.12)">
     <use transform="translate(0 0.78125)" xlink:href="#DejaVuSans-916"/>
     <use transform="translate(68.408203 0.78125)" xlink:href="#DejaVuSans-Oblique-117"/>
     <use transform="translate(151.269531 0.78125)" xlink:href="#DejaVuSans-61"/>
     <use transform="translate(254.541016 0.78125)" xlink:href="#DejaVuSans-48"/>
     <use transform="translate(318.164062 0.78125)" xlink:href="#DejaVuSans-46"/>
     <use transform="translate(349.951172 0.78125)" xlink:href="#DejaVuSans-49"/>
     <use transform="translate(413.574219 0.78125)" xlink:href="#DejaVuSans-53"/>
    </g>
   </g>
   <g id="legend_2">
    <g id="patch_13">
     <path d="M 99.776458 190.41625 
L 146.337395 190.41625 
Q 148.337395 190.41625 148.337395 188.41625 
L 148.337395 160.06 
Q 148.337395 158.06 146.337395 158.06 
L 99.776458 158.06 
Q 97.776458 158.06 97.776458 160.06 
L 97.776458 188.41625 
Q 97.776458 190.41625 99.776458 190.41625 
z
" style="fill:#ffffff;opacity:0.8;stroke:#cccccc;stroke-linejoin:miter;"/>
    </g>
    <g id="line2d_19">
     <path d="M 101.776458 166.158438 
L 121.776458 166.158438 
" style="fill:none;stroke:#ffa500;stroke-linecap:square;stroke-width:1.5;"/>
    </g>
    <g id="line2d_20">
     <g>
      <use style="fill:#ffa500;stroke:#ffa500;" x="111.776458" xlink:href="#m8567c88df1" y="166.158438"/>
     </g>
    </g>
    <g id="text_19">
     <!-- SB -->
     <g transform="translate(129.776458 169.658438)scale(0.1 -0.1)">
      <use xlink:href="#DejaVuSans-83"/>
      <use x="63.476562" xlink:href="#DejaVuSans-66"/>
     </g>
    </g>
    <g id="line2d_21">
     <path d="M 101.776458 180.836563 
L 121.776458 180.836563 
" style="fill:none;stroke:#556b2f;stroke-linecap:square;stroke-width:1.5;"/>
    </g>
    <g id="line2d_22">
     <g>
      <use style="fill:#556b2f;stroke:#556b2f;" x="111.776458" xlink:href="#m39262491ed" y="180.836563"/>
     </g>
    </g>
    <g id="text_20">
     <!-- DB -->
     <g transform="translate(129.776458 184.336563)scale(0.1 -0.1)">
      <use xlink:href="#DejaVuSans-68"/>
      <use x="77.001953" xlink:href="#DejaVuSans-66"/>
     </g>
    </g>
   </g>
  </g>
  <g id="axes_3">
   <g id="patch_14">
    <path d="M 54.245 348.136 
L 153.337395 348.136 
L 153.337395 279.96 
L 54.245 279.96 
z
" style="fill:#ffffff;"/>
   </g>
   <g id="matplotlib.axis_5">
    <g id="xtick_7">
     <g id="line2d_23">
      <g>
       <use style="stroke:#000000;stroke-width:0.8;" x="58.614333" xlink:href="#me70ac0e97a" y="348.136"/>
      </g>
     </g>
     <g id="text_21">
      <!-- $\mathdefault{10^{-1}}$ -->
      <g transform="translate(46.864333 362.734438)scale(0.1 -0.1)">
       <use transform="translate(0 0.684375)" xlink:href="#DejaVuSans-49"/>
       <use transform="translate(63.623047 0.684375)" xlink:href="#DejaVuSans-48"/>
       <use transform="translate(128.203125 38.965625)scale(0.7)" xlink:href="#DejaVuSans-8722"/>
       <use transform="translate(186.855469 38.965625)scale(0.7)" xlink:href="#DejaVuSans-49"/>
      </g>
     </g>
    </g>
    <g id="xtick_8">
     <g id="line2d_24">
      <g>
       <use style="stroke:#000000;stroke-width:0.8;" x="105.975864" xlink:href="#me70ac0e97a" y="348.136"/>
      </g>
     </g>
     <g id="text_22">
      <!-- $\mathdefault{10^{0}}$ -->
      <g transform="translate(97.175864 362.734438)scale(0.1 -0.1)">
       <use transform="translate(0 0.765625)" xlink:href="#DejaVuSans-49"/>
       <use transform="translate(63.623047 0.765625)" xlink:href="#DejaVuSans-48"/>
       <use transform="translate(128.203125 39.046875)scale(0.7)" xlink:href="#DejaVuSans-48"/>
      </g>
     </g>
    </g>
    <g id="xtick_9">
     <g id="line2d_25">
      <g>
       <use style="stroke:#000000;stroke-width:0.8;" x="153.337395" xlink:href="#me70ac0e97a" y="348.136"/>
      </g>
     </g>
     <g id="text_23">
      <!-- $\mathdefault{10^{1}}$ -->
      <g transform="translate(144.537395 362.734438)scale(0.1 -0.1)">
       <use transform="translate(0 0.684375)" xlink:href="#DejaVuSans-49"/>
       <use transform="translate(63.623047 0.684375)" xlink:href="#DejaVuSans-48"/>
       <use transform="translate(128.203125 38.965625)scale(0.7)" xlink:href="#DejaVuSans-49"/>
      </g>
     </g>
    </g>
    <g id="text_24">
     <!-- $\Delta t$ [ms] -->
     <g transform="translate(85.441198 376.412562)scale(0.1 -0.1)">
      <use transform="translate(0 0.015625)" xlink:href="#DejaVuSans-916"/>
      <use transform="translate(68.408203 0.015625)" xlink:href="#DejaVuSans-Oblique-116"/>
      <use transform="translate(107.617188 0.015625)" xlink:href="#DejaVuSans-32"/>
      <use transform="translate(139.404297 0.015625)" xlink:href="#DejaVuSans-91"/>
      <use transform="translate(178.417969 0.015625)" xlink:href="#DejaVuSans-109"/>
      <use transform="translate(275.830078 0.015625)" xlink:href="#DejaVuSans-115"/>
      <use transform="translate(327.929688 0.015625)" xlink:href="#DejaVuSans-93"/>
     </g>
    </g>
   </g>
   <g id="matplotlib.axis_6">
    <g id="ytick_5">
     <g id="line2d_26">
      <g>
       <use style="stroke:#000000;stroke-width:0.8;" x="54.245" xlink:href="#m1098dd0cb2" y="323.92597"/>
      </g>
     </g>
     <g id="text_25">
      <!-- 0.04 -->
      <g transform="translate(24.979375 327.725189)scale(0.1 -0.1)">
       <use xlink:href="#DejaVuSans-48"/>
       <use x="63.623047" xlink:href="#DejaVuSans-46"/>
       <use x="95.410156" xlink:href="#DejaVuSans-48"/>
       <use x="159.033203" xlink:href="#DejaVuSans-52"/>
      </g>
     </g>
    </g>
    <g id="ytick_6">
     <g id="line2d_27">
      <g>
       <use style="stroke:#000000;stroke-width:0.8;" x="54.245" xlink:href="#m1098dd0cb2" y="290.148009"/>
      </g>
     </g>
     <g id="text_26">
      <!-- 0.06 -->
      <g transform="translate(24.979375 293.947227)scale(0.1 -0.1)">
       <use xlink:href="#DejaVuSans-48"/>
       <use x="63.623047" xlink:href="#DejaVuSans-46"/>
       <use x="95.410156" xlink:href="#DejaVuSans-48"/>
       <use x="159.033203" xlink:href="#DejaVuSans-54"/>
      </g>
     </g>
    </g>
    <g id="text_27">
     <!-- decoder loss -->
     <g transform="translate(18.899687 345.6605)rotate(-90)scale(0.1 -0.1)">
      <use xlink:href="#DejaVuSans-100"/>
      <use x="63.476562" xlink:href="#DejaVuSans-101"/>
      <use x="125" xlink:href="#DejaVuSans-99"/>
      <use x="179.980469" xlink:href="#DejaVuSans-111"/>
      <use x="241.162109" xlink:href="#DejaVuSans-100"/>
      <use x="304.638672" xlink:href="#DejaVuSans-101"/>
      <use x="366.162109" xlink:href="#DejaVuSans-114"/>
      <use x="407.275391" xlink:href="#DejaVuSans-32"/>
      <use x="439.0625" xlink:href="#DejaVuSans-108"/>
      <use x="466.845703" xlink:href="#DejaVuSans-111"/>
      <use x="528.027344" xlink:href="#DejaVuSans-115"/>
      <use x="580.126953" xlink:href="#DejaVuSans-115"/>
     </g>
    </g>
   </g>
   <g id="line2d_28">
    <path clip-path="url(#pd0afcacc9a)" d="M 58.614333 335.382427 
L 63.20414 317.233332 
L 66.954285 334.441239 
L 70.124987 332.887762 
L 72.871575 333.397552 
L 75.294237 331.058255 
L 77.461381 339.048603 
L 79.421802 332.883624 
L 81.211526 332.156706 
L 87.128816 333.310556 
L 91.718623 283.058909 
L 98.63947 283.117236 
L 105.975864 283.115045 
L 114.315816 283.355754 
L 120.233106 283.410079 
L 128.573058 283.419528 
L 139.080154 283.867076 
L 146.001001 284.127899 
" style="fill:none;stroke:#ffa500;stroke-linecap:square;stroke-width:1.5;"/>
    <g clip-path="url(#pd0afcacc9a)">
     <use style="fill:#ffa500;stroke:#ffa500;" x="58.614333" xlink:href="#m8567c88df1" y="335.382427"/>
     <use style="fill:#ffa500;stroke:#ffa500;" x="63.20414" xlink:href="#m8567c88df1" y="317.233332"/>
     <use style="fill:#ffa500;stroke:#ffa500;" x="66.954285" xlink:href="#m8567c88df1" y="334.441239"/>
     <use style="fill:#ffa500;stroke:#ffa500;" x="70.124987" xlink:href="#m8567c88df1" y="332.887762"/>
     <use style="fill:#ffa500;stroke:#ffa500;" x="72.871575" xlink:href="#m8567c88df1" y="333.397552"/>
     <use style="fill:#ffa500;stroke:#ffa500;" x="75.294237" xlink:href="#m8567c88df1" y="331.058255"/>
     <use style="fill:#ffa500;stroke:#ffa500;" x="77.461381" xlink:href="#m8567c88df1" y="339.048603"/>
     <use style="fill:#ffa500;stroke:#ffa500;" x="79.421802" xlink:href="#m8567c88df1" y="332.883624"/>
     <use style="fill:#ffa500;stroke:#ffa500;" x="81.211526" xlink:href="#m8567c88df1" y="332.156706"/>
     <use style="fill:#ffa500;stroke:#ffa500;" x="87.128816" xlink:href="#m8567c88df1" y="333.310556"/>
     <use style="fill:#ffa500;stroke:#ffa500;" x="91.718623" xlink:href="#m8567c88df1" y="283.058909"/>
     <use style="fill:#ffa500;stroke:#ffa500;" x="98.63947" xlink:href="#m8567c88df1" y="283.117236"/>
     <use style="fill:#ffa500;stroke:#ffa500;" x="105.975864" xlink:href="#m8567c88df1" y="283.115045"/>
     <use style="fill:#ffa500;stroke:#ffa500;" x="114.315816" xlink:href="#m8567c88df1" y="283.355754"/>
     <use style="fill:#ffa500;stroke:#ffa500;" x="120.233106" xlink:href="#m8567c88df1" y="283.410079"/>
     <use style="fill:#ffa500;stroke:#ffa500;" x="128.573058" xlink:href="#m8567c88df1" y="283.419528"/>
     <use style="fill:#ffa500;stroke:#ffa500;" x="139.080154" xlink:href="#m8567c88df1" y="283.867076"/>
     <use style="fill:#ffa500;stroke:#ffa500;" x="146.001001" xlink:href="#m8567c88df1" y="284.127899"/>
    </g>
   </g>
   <g id="line2d_29">
    <path clip-path="url(#pd0afcacc9a)" d="M 58.614333 345.037091 
L 63.20414 344.906051 
L 66.954285 344.938593 
L 70.124987 345.001388 
L 72.871575 345.033671 
L 75.294237 344.702126 
L 77.461381 344.607678 
L 79.421802 344.614037 
L 81.211526 344.483778 
L 87.128816 344.513451 
L 91.718623 344.041693 
L 98.63947 343.279664 
L 105.975864 342.283138 
L 114.315816 340.866361 
L 120.233106 339.161043 
L 128.573058 336.234552 
L 139.080154 331.24458 
L 146.001001 327.246919 
" style="fill:none;stroke:#556b2f;stroke-linecap:square;stroke-width:1.5;"/>
    <g clip-path="url(#pd0afcacc9a)">
     <use style="fill:#556b2f;stroke:#556b2f;" x="58.614333" xlink:href="#m39262491ed" y="345.037091"/>
     <use style="fill:#556b2f;stroke:#556b2f;" x="63.20414" xlink:href="#m39262491ed" y="344.906051"/>
     <use style="fill:#556b2f;stroke:#556b2f;" x="66.954285" xlink:href="#m39262491ed" y="344.938593"/>
     <use style="fill:#556b2f;stroke:#556b2f;" x="70.124987" xlink:href="#m39262491ed" y="345.001388"/>
     <use style="fill:#556b2f;stroke:#556b2f;" x="72.871575" xlink:href="#m39262491ed" y="345.033671"/>
     <use style="fill:#556b2f;stroke:#556b2f;" x="75.294237" xlink:href="#m39262491ed" y="344.702126"/>
     <use style="fill:#556b2f;stroke:#556b2f;" x="77.461381" xlink:href="#m39262491ed" y="344.607678"/>
     <use style="fill:#556b2f;stroke:#556b2f;" x="79.421802" xlink:href="#m39262491ed" y="344.614037"/>
     <use style="fill:#556b2f;stroke:#556b2f;" x="81.211526" xlink:href="#m39262491ed" y="344.483778"/>
     <use style="fill:#556b2f;stroke:#556b2f;" x="87.128816" xlink:href="#m39262491ed" y="344.513451"/>
     <use style="fill:#556b2f;stroke:#556b2f;" x="91.718623" xlink:href="#m39262491ed" y="344.041693"/>
     <use style="fill:#556b2f;stroke:#556b2f;" x="98.63947" xlink:href="#m39262491ed" y="343.279664"/>
     <use style="fill:#556b2f;stroke:#556b2f;" x="105.975864" xlink:href="#m39262491ed" y="342.283138"/>
     <use style="fill:#556b2f;stroke:#556b2f;" x="114.315816" xlink:href="#m39262491ed" y="340.866361"/>
     <use style="fill:#556b2f;stroke:#556b2f;" x="120.233106" xlink:href="#m39262491ed" y="339.161043"/>
     <use style="fill:#556b2f;stroke:#556b2f;" x="128.573058" xlink:href="#m39262491ed" y="336.234552"/>
     <use style="fill:#556b2f;stroke:#556b2f;" x="139.080154" xlink:href="#m39262491ed" y="331.24458"/>
     <use style="fill:#556b2f;stroke:#556b2f;" x="146.001001" xlink:href="#m39262491ed" y="327.246919"/>
    </g>
   </g>
   <g id="patch_15">
    <path d="M 54.245 348.136 
L 54.245 279.96 
" style="fill:none;stroke:#000000;stroke-linecap:square;stroke-linejoin:miter;stroke-width:0.8;"/>
   </g>
   <g id="patch_16">
    <path d="M 153.337395 348.136 
L 153.337395 279.96 
" style="fill:none;stroke:#000000;stroke-linecap:square;stroke-linejoin:miter;stroke-width:0.8;"/>
   </g>
   <g id="patch_17">
    <path d="M 54.245 348.136 
L 153.337395 348.136 
" style="fill:none;stroke:#000000;stroke-linecap:square;stroke-linejoin:miter;stroke-width:0.8;"/>
   </g>
   <g id="patch_18">
    <path d="M 54.245 279.96 
L 153.337395 279.96 
" style="fill:none;stroke:#000000;stroke-linecap:square;stroke-linejoin:miter;stroke-width:0.8;"/>
   </g>
   <g id="text_28">
    <!-- $\Delta u=0.20$ -->
    <defs>
     <path d="M 19.1875 8.296875 
L 53.609375 8.296875 
L 53.609375 0 
L 7.328125 0 
L 7.328125 8.296875 
Q 12.9375 14.109375 22.625 23.890625 
Q 32.328125 33.6875 34.8125 36.53125 
Q 39.546875 41.84375 41.421875 45.53125 
Q 43.3125 49.21875 43.3125 52.78125 
Q 43.3125 58.59375 39.234375 62.25 
Q 35.15625 65.921875 28.609375 65.921875 
Q 23.96875 65.921875 18.8125 64.3125 
Q 13.671875 62.703125 7.8125 59.421875 
L 7.8125 69.390625 
Q 13.765625 71.78125 18.9375 73 
Q 24.125 74.21875 28.421875 74.21875 
Q 39.75 74.21875 46.484375 68.546875 
Q 53.21875 62.890625 53.21875 53.421875 
Q 53.21875 48.921875 51.53125 44.890625 
Q 49.859375 40.875 45.40625 35.40625 
Q 44.1875 33.984375 37.640625 27.21875 
Q 31.109375 20.453125 19.1875 8.296875 
z
" id="DejaVuSans-50"/>
    </defs>
    <g transform="translate(75.111198 273.96)scale(0.12 -0.12)">
     <use transform="translate(0 0.78125)" xlink:href="#DejaVuSans-916"/>
     <use transform="translate(68.408203 0.78125)" xlink:href="#DejaVuSans-Oblique-117"/>
     <use transform="translate(151.269531 0.78125)" xlink:href="#DejaVuSans-61"/>
     <use transform="translate(254.541016 0.78125)" xlink:href="#DejaVuSans-48"/>
     <use transform="translate(318.164062 0.78125)" xlink:href="#DejaVuSans-46"/>
     <use transform="translate(349.873047 0.78125)" xlink:href="#DejaVuSans-50"/>
     <use transform="translate(413.496094 0.78125)" xlink:href="#DejaVuSans-48"/>
    </g>
   </g>
   <g id="legend_3">
    <g id="patch_19">
     <path d="M 99.776458 317.31625 
L 146.337395 317.31625 
Q 148.337395 317.31625 148.337395 315.31625 
L 148.337395 286.96 
Q 148.337395 284.96 146.337395 284.96 
L 99.776458 284.96 
Q 97.776458 284.96 97.776458 286.96 
L 97.776458 315.31625 
Q 97.776458 317.31625 99.776458 317.31625 
z
" style="fill:#ffffff;opacity:0.8;stroke:#cccccc;stroke-linejoin:miter;"/>
    </g>
    <g id="line2d_30">
     <path d="M 101.776458 293.058438 
L 121.776458 293.058438 
" style="fill:none;stroke:#ffa500;stroke-linecap:square;stroke-width:1.5;"/>
    </g>
    <g id="line2d_31">
     <g>
      <use style="fill:#ffa500;stroke:#ffa500;" x="111.776458" xlink:href="#m8567c88df1" y="293.058438"/>
     </g>
    </g>
    <g id="text_29">
     <!-- SB -->
     <g transform="translate(129.776458 296.558438)scale(0.1 -0.1)">
      <use xlink:href="#DejaVuSans-83"/>
      <use x="63.476562" xlink:href="#DejaVuSans-66"/>
     </g>
    </g>
    <g id="line2d_32">
     <path d="M 101.776458 307.736562 
L 121.776458 307.736562 
" style="fill:none;stroke:#556b2f;stroke-linecap:square;stroke-width:1.5;"/>
    </g>
    <g id="line2d_33">
     <g>
      <use style="fill:#556b2f;stroke:#556b2f;" x="111.776458" xlink:href="#m39262491ed" y="307.736562"/>
     </g>
    </g>
    <g id="text_30">
     <!-- DB -->
     <g transform="translate(129.776458 311.236562)scale(0.1 -0.1)">
      <use xlink:href="#DejaVuSans-68"/>
      <use x="77.001953" xlink:href="#DejaVuSans-66"/>
     </g>
    </g>
   </g>
  </g>
  <g id="axes_4">
   <g id="patch_20">
    <path d="M 54.245 475.036 
L 153.337395 475.036 
L 153.337395 406.86 
L 54.245 406.86 
z
" style="fill:#ffffff;"/>
   </g>
   <g id="matplotlib.axis_7">
    <g id="xtick_10">
     <g id="line2d_34">
      <g>
       <use style="stroke:#000000;stroke-width:0.8;" x="58.614333" xlink:href="#me70ac0e97a" y="475.036"/>
      </g>
     </g>
     <g id="text_31">
      <!-- $\mathdefault{10^{-1}}$ -->
      <g transform="translate(46.864333 489.634437)scale(0.1 -0.1)">
       <use transform="translate(0 0.684375)" xlink:href="#DejaVuSans-49"/>
       <use transform="translate(63.623047 0.684375)" xlink:href="#DejaVuSans-48"/>
       <use transform="translate(128.203125 38.965625)scale(0.7)" xlink:href="#DejaVuSans-8722"/>
       <use transform="translate(186.855469 38.965625)scale(0.7)" xlink:href="#DejaVuSans-49"/>
      </g>
     </g>
    </g>
    <g id="xtick_11">
     <g id="line2d_35">
      <g>
       <use style="stroke:#000000;stroke-width:0.8;" x="105.975864" xlink:href="#me70ac0e97a" y="475.036"/>
      </g>
     </g>
     <g id="text_32">
      <!-- $\mathdefault{10^{0}}$ -->
      <g transform="translate(97.175864 489.634437)scale(0.1 -0.1)">
       <use transform="translate(0 0.765625)" xlink:href="#DejaVuSans-49"/>
       <use transform="translate(63.623047 0.765625)" xlink:href="#DejaVuSans-48"/>
       <use transform="translate(128.203125 39.046875)scale(0.7)" xlink:href="#DejaVuSans-48"/>
      </g>
     </g>
    </g>
    <g id="xtick_12">
     <g id="line2d_36">
      <g>
       <use style="stroke:#000000;stroke-width:0.8;" x="153.337395" xlink:href="#me70ac0e97a" y="475.036"/>
      </g>
     </g>
     <g id="text_33">
      <!-- $\mathdefault{10^{1}}$ -->
      <g transform="translate(144.537395 489.634437)scale(0.1 -0.1)">
       <use transform="translate(0 0.684375)" xlink:href="#DejaVuSans-49"/>
       <use transform="translate(63.623047 0.684375)" xlink:href="#DejaVuSans-48"/>
       <use transform="translate(128.203125 38.965625)scale(0.7)" xlink:href="#DejaVuSans-49"/>
      </g>
     </g>
    </g>
    <g id="text_34">
     <!-- $\Delta t$ [ms] -->
     <g transform="translate(85.441198 503.312562)scale(0.1 -0.1)">
      <use transform="translate(0 0.015625)" xlink:href="#DejaVuSans-916"/>
      <use transform="translate(68.408203 0.015625)" xlink:href="#DejaVuSans-Oblique-116"/>
      <use transform="translate(107.617188 0.015625)" xlink:href="#DejaVuSans-32"/>
      <use transform="translate(139.404297 0.015625)" xlink:href="#DejaVuSans-91"/>
      <use transform="translate(178.417969 0.015625)" xlink:href="#DejaVuSans-109"/>
      <use transform="translate(275.830078 0.015625)" xlink:href="#DejaVuSans-115"/>
      <use transform="translate(327.929688 0.015625)" xlink:href="#DejaVuSans-93"/>
     </g>
    </g>
   </g>
   <g id="matplotlib.axis_8">
    <g id="ytick_7">
     <g id="line2d_37">
      <g>
       <use style="stroke:#000000;stroke-width:0.8;" x="54.245" xlink:href="#m1098dd0cb2" y="457.007731"/>
      </g>
     </g>
     <g id="text_35">
      <!-- 0.04 -->
      <g transform="translate(24.979375 460.80695)scale(0.1 -0.1)">
       <use xlink:href="#DejaVuSans-48"/>
       <use x="63.623047" xlink:href="#DejaVuSans-46"/>
       <use x="95.410156" xlink:href="#DejaVuSans-48"/>
       <use x="159.033203" xlink:href="#DejaVuSans-52"/>
      </g>
     </g>
    </g>
    <g id="ytick_8">
     <g id="line2d_38">
      <g>
       <use style="stroke:#000000;stroke-width:0.8;" x="54.245" xlink:href="#m1098dd0cb2" y="418.106135"/>
      </g>
     </g>
     <g id="text_36">
      <!-- 0.06 -->
      <g transform="translate(24.979375 421.905353)scale(0.1 -0.1)">
       <use xlink:href="#DejaVuSans-48"/>
       <use x="63.623047" xlink:href="#DejaVuSans-46"/>
       <use x="95.410156" xlink:href="#DejaVuSans-48"/>
       <use x="159.033203" xlink:href="#DejaVuSans-54"/>
      </g>
     </g>
    </g>
    <g id="text_37">
     <!-- decoder loss -->
     <g transform="translate(18.899687 472.5605)rotate(-90)scale(0.1 -0.1)">
      <use xlink:href="#DejaVuSans-100"/>
      <use x="63.476562" xlink:href="#DejaVuSans-101"/>
      <use x="125" xlink:href="#DejaVuSans-99"/>
      <use x="179.980469" xlink:href="#DejaVuSans-111"/>
      <use x="241.162109" xlink:href="#DejaVuSans-100"/>
      <use x="304.638672" xlink:href="#DejaVuSans-101"/>
      <use x="366.162109" xlink:href="#DejaVuSans-114"/>
      <use x="407.275391" xlink:href="#DejaVuSans-32"/>
      <use x="439.0625" xlink:href="#DejaVuSans-108"/>
      <use x="466.845703" xlink:href="#DejaVuSans-111"/>
      <use x="528.027344" xlink:href="#DejaVuSans-115"/>
      <use x="580.126953" xlink:href="#DejaVuSans-115"/>
     </g>
    </g>
   </g>
   <g id="line2d_39">
    <path clip-path="url(#pbb0db0baaf)" d="M 58.614333 442.634723 
L 63.20414 463.001329 
L 66.954285 462.092217 
L 70.124987 457.735025 
L 72.871575 453.826379 
L 75.294237 454.878342 
L 77.461381 460.267107 
L 79.421802 460.229643 
L 81.211526 458.57627 
L 87.128816 462.930784 
L 91.718623 456.230122 
L 98.63947 409.958909 
L 105.975864 410.117661 
L 114.315816 410.448103 
L 120.233106 410.560937 
L 128.573058 410.367867 
L 139.080154 410.157954 
L 146.001001 411.579329 
" style="fill:none;stroke:#ffa500;stroke-linecap:square;stroke-width:1.5;"/>
    <g clip-path="url(#pbb0db0baaf)">
     <use style="fill:#ffa500;stroke:#ffa500;" x="58.614333" xlink:href="#m8567c88df1" y="442.634723"/>
     <use style="fill:#ffa500;stroke:#ffa500;" x="63.20414" xlink:href="#m8567c88df1" y="463.001329"/>
     <use style="fill:#ffa500;stroke:#ffa500;" x="66.954285" xlink:href="#m8567c88df1" y="462.092217"/>
     <use style="fill:#ffa500;stroke:#ffa500;" x="70.124987" xlink:href="#m8567c88df1" y="457.735025"/>
     <use style="fill:#ffa500;stroke:#ffa500;" x="72.871575" xlink:href="#m8567c88df1" y="453.826379"/>
     <use style="fill:#ffa500;stroke:#ffa500;" x="75.294237" xlink:href="#m8567c88df1" y="454.878342"/>
     <use style="fill:#ffa500;stroke:#ffa500;" x="77.461381" xlink:href="#m8567c88df1" y="460.267107"/>
     <use style="fill:#ffa500;stroke:#ffa500;" x="79.421802" xlink:href="#m8567c88df1" y="460.229643"/>
     <use style="fill:#ffa500;stroke:#ffa500;" x="81.211526" xlink:href="#m8567c88df1" y="458.57627"/>
     <use style="fill:#ffa500;stroke:#ffa500;" x="87.128816" xlink:href="#m8567c88df1" y="462.930784"/>
     <use style="fill:#ffa500;stroke:#ffa500;" x="91.718623" xlink:href="#m8567c88df1" y="456.230122"/>
     <use style="fill:#ffa500;stroke:#ffa500;" x="98.63947" xlink:href="#m8567c88df1" y="409.958909"/>
     <use style="fill:#ffa500;stroke:#ffa500;" x="105.975864" xlink:href="#m8567c88df1" y="410.117661"/>
     <use style="fill:#ffa500;stroke:#ffa500;" x="114.315816" xlink:href="#m8567c88df1" y="410.448103"/>
     <use style="fill:#ffa500;stroke:#ffa500;" x="120.233106" xlink:href="#m8567c88df1" y="410.560937"/>
     <use style="fill:#ffa500;stroke:#ffa500;" x="128.573058" xlink:href="#m8567c88df1" y="410.367867"/>
     <use style="fill:#ffa500;stroke:#ffa500;" x="139.080154" xlink:href="#m8567c88df1" y="410.157954"/>
     <use style="fill:#ffa500;stroke:#ffa500;" x="146.001001" xlink:href="#m8567c88df1" y="411.579329"/>
    </g>
   </g>
   <g id="line2d_40">
    <path clip-path="url(#pbb0db0baaf)" d="M 58.614333 471.937091 
L 63.20414 471.850834 
L 66.954285 471.735013 
L 70.124987 471.846975 
L 72.871575 471.560445 
L 75.294237 471.635759 
L 77.461381 471.578442 
L 79.421802 471.914356 
L 81.211526 471.651311 
L 87.128816 471.637181 
L 91.718623 471.11858 
L 98.63947 470.811613 
L 105.975864 470.13268 
L 114.315816 469.095193 
L 120.233106 467.664606 
L 128.573058 464.686938 
L 139.080154 460.610735 
L 146.001001 456.830838 
" style="fill:none;stroke:#556b2f;stroke-linecap:square;stroke-width:1.5;"/>
    <g clip-path="url(#pbb0db0baaf)">
     <use style="fill:#556b2f;stroke:#556b2f;" x="58.614333" xlink:href="#m39262491ed" y="471.937091"/>
     <use style="fill:#556b2f;stroke:#556b2f;" x="63.20414" xlink:href="#m39262491ed" y="471.850834"/>
     <use style="fill:#556b2f;stroke:#556b2f;" x="66.954285" xlink:href="#m39262491ed" y="471.735013"/>
     <use style="fill:#556b2f;stroke:#556b2f;" x="70.124987" xlink:href="#m39262491ed" y="471.846975"/>
     <use style="fill:#556b2f;stroke:#556b2f;" x="72.871575" xlink:href="#m39262491ed" y="471.560445"/>
     <use style="fill:#556b2f;stroke:#556b2f;" x="75.294237" xlink:href="#m39262491ed" y="471.635759"/>
     <use style="fill:#556b2f;stroke:#556b2f;" x="77.461381" xlink:href="#m39262491ed" y="471.578442"/>
     <use style="fill:#556b2f;stroke:#556b2f;" x="79.421802" xlink:href="#m39262491ed" y="471.914356"/>
     <use style="fill:#556b2f;stroke:#556b2f;" x="81.211526" xlink:href="#m39262491ed" y="471.651311"/>
     <use style="fill:#556b2f;stroke:#556b2f;" x="87.128816" xlink:href="#m39262491ed" y="471.637181"/>
     <use style="fill:#556b2f;stroke:#556b2f;" x="91.718623" xlink:href="#m39262491ed" y="471.11858"/>
     <use style="fill:#556b2f;stroke:#556b2f;" x="98.63947" xlink:href="#m39262491ed" y="470.811613"/>
     <use style="fill:#556b2f;stroke:#556b2f;" x="105.975864" xlink:href="#m39262491ed" y="470.13268"/>
     <use style="fill:#556b2f;stroke:#556b2f;" x="114.315816" xlink:href="#m39262491ed" y="469.095193"/>
     <use style="fill:#556b2f;stroke:#556b2f;" x="120.233106" xlink:href="#m39262491ed" y="467.664606"/>
     <use style="fill:#556b2f;stroke:#556b2f;" x="128.573058" xlink:href="#m39262491ed" y="464.686938"/>
     <use style="fill:#556b2f;stroke:#556b2f;" x="139.080154" xlink:href="#m39262491ed" y="460.610735"/>
     <use style="fill:#556b2f;stroke:#556b2f;" x="146.001001" xlink:href="#m39262491ed" y="456.830838"/>
    </g>
   </g>
   <g id="patch_21">
    <path d="M 54.245 475.036 
L 54.245 406.86 
" style="fill:none;stroke:#000000;stroke-linecap:square;stroke-linejoin:miter;stroke-width:0.8;"/>
   </g>
   <g id="patch_22">
    <path d="M 153.337395 475.036 
L 153.337395 406.86 
" style="fill:none;stroke:#000000;stroke-linecap:square;stroke-linejoin:miter;stroke-width:0.8;"/>
   </g>
   <g id="patch_23">
    <path d="M 54.245 475.036 
L 153.337395 475.036 
" style="fill:none;stroke:#000000;stroke-linecap:square;stroke-linejoin:miter;stroke-width:0.8;"/>
   </g>
   <g id="patch_24">
    <path d="M 54.245 406.86 
L 153.337395 406.86 
" style="fill:none;stroke:#000000;stroke-linecap:square;stroke-linejoin:miter;stroke-width:0.8;"/>
   </g>
   <g id="text_38">
    <!-- $\Delta u=0.30$ -->
    <g transform="translate(75.111198 400.86)scale(0.12 -0.12)">
     <use transform="translate(0 0.78125)" xlink:href="#DejaVuSans-916"/>
     <use transform="translate(68.408203 0.78125)" xlink:href="#DejaVuSans-Oblique-117"/>
     <use transform="translate(151.269531 0.78125)" xlink:href="#DejaVuSans-61"/>
     <use transform="translate(254.541016 0.78125)" xlink:href="#DejaVuSans-48"/>
     <use transform="translate(318.164062 0.78125)" xlink:href="#DejaVuSans-46"/>
     <use transform="translate(349.951172 0.78125)" xlink:href="#DejaVuSans-51"/>
     <use transform="translate(413.574219 0.78125)" xlink:href="#DejaVuSans-48"/>
    </g>
   </g>
   <g id="legend_4">
    <g id="patch_25">
     <path d="M 99.776458 444.21625 
L 146.337395 444.21625 
Q 148.337395 444.21625 148.337395 442.21625 
L 148.337395 413.86 
Q 148.337395 411.86 146.337395 411.86 
L 99.776458 411.86 
Q 97.776458 411.86 97.776458 413.86 
L 97.776458 442.21625 
Q 97.776458 444.21625 99.776458 444.21625 
z
" style="fill:#ffffff;opacity:0.8;stroke:#cccccc;stroke-linejoin:miter;"/>
    </g>
    <g id="line2d_41">
     <path d="M 101.776458 419.958438 
L 121.776458 419.958438 
" style="fill:none;stroke:#ffa500;stroke-linecap:square;stroke-width:1.5;"/>
    </g>
    <g id="line2d_42">
     <g>
      <use style="fill:#ffa500;stroke:#ffa500;" x="111.776458" xlink:href="#m8567c88df1" y="419.958438"/>
     </g>
    </g>
    <g id="text_39">
     <!-- SB -->
     <g transform="translate(129.776458 423.458438)scale(0.1 -0.1)">
      <use xlink:href="#DejaVuSans-83"/>
      <use x="63.476562" xlink:href="#DejaVuSans-66"/>
     </g>
    </g>
    <g id="line2d_43">
     <path d="M 101.776458 434.636563 
L 121.776458 434.636563 
" style="fill:none;stroke:#556b2f;stroke-linecap:square;stroke-width:1.5;"/>
    </g>
    <g id="line2d_44">
     <g>
      <use style="fill:#556b2f;stroke:#556b2f;" x="111.776458" xlink:href="#m39262491ed" y="434.636563"/>
     </g>
    </g>
    <g id="text_40">
     <!-- DB -->
     <g transform="translate(129.776458 438.136563)scale(0.1 -0.1)">
      <use xlink:href="#DejaVuSans-68"/>
      <use x="77.001953" xlink:href="#DejaVuSans-66"/>
     </g>
    </g>
   </g>
  </g>
 </g>
 <defs>
  <clipPath id="pfa7e3f2242">
   <rect height="68.176" width="99.092395" x="54.245" y="26.16"/>
  </clipPath>
  <clipPath id="pbe1e31e8d0">
   <rect height="68.176" width="99.092395" x="54.245" y="153.06"/>
  </clipPath>
  <clipPath id="pd0afcacc9a">
   <rect height="68.176" width="99.092395" x="54.245" y="279.96"/>
  </clipPath>
  <clipPath id="pbb0db0baaf">
   <rect height="68.176" width="99.092395" x="54.245" y="406.86"/>
  </clipPath>
 </defs>
</svg>
